<svg width="128" height="128" viewBox="0 0 128 128" fill="none" xmlns="http://www.w3.org/2000/svg">
<path d="M43.1456 3.08599C60.1453 2.08608 59.1456 10.086 61.1456 12.586C63.1456 15.086 66.1456 13.586 65.6456 11.586C65.1449 9.58576 53.6459 3.58602 62.1456 4.58599C71.3452 4.58609 74.9788 10.5859 75.6456 13.586C76.8456 16.386 81.5056 18.6974 83.6857 19.503C111.749 30.8356 135.766 64.9003 113.355 97.4981C90.9428 130.096 49.5688 129.138 30.8575 115.498C12.1464 101.858 -0.640719 85.4999 7.35656 52.4991C21.8586 63.4995 44.8987 73.1777 64.1417 52.9854C83.3849 32.7928 101.894 37.3603 108.742 42.168C104.733 35.9867 94.7107 27.23 85.6905 23.6241C80.7159 22.0843 76.3805 26.5082 74.7902 29.5362C74.3932 30.292 73.217 30.6568 72.6339 30.0333C71.091 28.3834 69.1188 27.1218 64.6456 33.086C57.1457 43.0859 39.6464 38.8713 44.1456 36.086C54.6456 29.586 48.6456 23.586 41.1456 35.586C33.6456 47.586 19.6462 47.586 26.6456 37.586C29.8682 32.9815 23.6266 29.8219 13.3214 44.8223C12.8433 45.5176 11.8297 45.3564 11.7071 44.5215C11.1461 40.6968 11.1536 32.4567 20.1456 27.586C27.7381 23.4734 29.8124 21.3363 29.1456 19.503C26.1456 12.5031 8.37239 33.1324 15.6456 18.586C21.1457 7.58611 36.6456 9.58597 40.1456 11.586C43.6456 13.586 46.6456 12.5859 44.6456 10.086C42.6455 7.58605 26.1457 4.08598 43.1456 3.08599ZM93.6466 45.086C81.7725 45.086 72.1467 54.712 72.1466 66.586C72.1466 78.4601 81.7725 88.086 93.6466 88.086C105.521 88.0858 115.147 78.46 115.147 66.586C115.146 54.7121 105.52 45.0862 93.6466 45.086Z" fill="black"/>
<circle cx="94.1504" cy="66.0858" r="14" fill="black"/>
</svg>
